<svg xmlns="http://www.w3.org/2000/svg" viewBox="0 0 1500 1500" width="40" height="40">
  <defs>
    <clipPath id="u-clip">
      <path d="M 1196.109375 267.59375 C 1242.300781 267.957031 1279.171875 229.695312 1278.46875 182.148438 L 1277.511719 117.460938 C 1276.800781 69.898438 1238.792969 31.054688 1192.609375 30.679688 C 1146.410156 30.320312 1109.542969 68.578125 1110.253906 116.144531 L 1111.207031 180.8125 C 1111.914062 228.378906 1149.921875 267.234375 1196.109375 267.59375 Z M 372.941406 1324.082031 C 282.007812 1236.6875 228.621094 1117.335938 217.019531 976.796875 C 215.550781 970.589844 214.703125 964.140625 214.605469 957.503906 L 208.296875 531.09375 C 207.582031 482.8125 245.351562 442.433594 292.242188 443.71875 C 337.699219 444.96875 374.839844 483.46875 375.539062 530.46875 L 377.015625 630.34375 C 377.230469 644.988281 388.960938 656.957031 403.175781 657 C 403.386719 657 403.59375 657 403.808594 657.019531 C 416.953125 657.0625 427.421875 646.183594 427.21875 632.632812 L 423.96875 412.960938 C 423.257812 364.679688 461.027344 324.316406 507.917969 325.605469 C 553.371094 326.84375 590.511719 365.339844 591.210938 412.335938 L 596.300781 742.3125 C 596.398438 748.347656 596.628906 754.398438 596.957031 760.46875 C 598.535156 789.8125 600.785156 907.753906 600.785156 907.753906 C 601.617188 964.28125 677.648438 1060.941406 752.851562 1059.15625 C 828.9375 1057.335938 904.191406 956.226562 902.785156 865.144531 L 901.621094 786.578125 C 901.578125 783.476562 901.605469 780.382812 901.699219 777.3125 C 901.9375 770.078125 902.121094 762.851562 902.03125 755.5625 L 898.734375 515.855469 L 897.496094 431.890625 L 895.757812 314.75 C 895.054688 266.46875 932.8125 226.105469 979.714844 227.386719 C 1025.160156 228.628906 1062.3125 267.125 1063 314.136719 L 1064.757812 433.207031 L 1065.351562 473.417969 C 1065.558594 487.074219 1076.488281 498.226562 1089.753906 498.324219 L 1090.410156 498.324219 C 1104.492188 498.414062 1115.742188 486.746094 1115.519531 472.238281 L 1114.296875 389.769531 C 1113.570312 341.488281 1151.347656 301.109375 1198.242188 302.394531 C 1243.699219 303.652344 1280.832031 342.148438 1281.542969 389.144531 L 1287.777344 844.101562 C 1288.378906 849.996094 1288.769531 855.96875 1288.863281 862.007812 L 1289.898438 932.5625 C 1292.3125 1094.910156 1240.140625 1232.03125 1139.054688 1329.085938 C 1042.789062 1421.496094 910.90625 1469.71875 757.636719 1468.492188 L 755.035156 1468.480469 C 602.082031 1467.269531 469.957031 1417.339844 372.941406 1324.082031 Z M 505.617188 279.3125 C 459.429688 278.953125 421.414062 240.089844 420.707031 192.53125 L 419.746094 127.84375 C 419.050781 80.28125 455.917969 42.03125 502.113281 42.394531 C 548.300781 42.753906 586.316406 81.613281 587.019531 129.175781 L 587.976562 193.859375 C 588.679688 241.425781 551.804688 279.667969 505.617188 279.3125"/>
    </clipPath>
  </defs>
  <rect width="1500" height="1500" rx="280" ry="280" fill="#ffffff"/>
  <rect width="1500" height="1500" fill="#000000" clip-path="url(#u-clip)"/>
</svg>
