<svg version="1.1" id="Layer_1" xmlns="http://www.w3.org/2000/svg" xmlns:xlink="http://www.w3.org/1999/xlink" x="0px" y="0px" viewBox="0 0 84.8 49.6" style="enable-background:new 0 0 84.8 49.6;" xml:space="preserve">
 <style type="text/css">
  .st0{fill:#FFF000;}
	.st1{fill:#122028;}
 </style>
 <g>
  <polygon class="st0" points="67.9,36 84.8,36 84.8,49.6 67.8,49.6 63.6,45.6 63.6,40 	">
  </polygon>
  <path class="st1" d="M15.2,10.7l0.3-0.1c0.2-0.1,0.5-0.3,0.8-0.5s0.6-0.5,0.9-0.8c0.3-0.3,0.5-0.7,0.8-1.3c0.2-0.5,0.3-1.1,0.3-1.7
		c0-1.5-0.7-2.9-2.1-4c-1.4-1.1-3.3-1.7-5.7-1.7H0V22h11.1c2.8,0,8.7-0.5,8.7-6.1C19.8,11.6,15.3,10.7,15.2,10.7 M6.9,5.6h2.6
		c0.5,0,0.9,0.1,1.3,0.5c0.3,0.3,0.5,0.7,0.5,1.1c0,0.4-0.2,0.8-0.5,1.1C10.4,8.6,10,8.8,9.5,8.8H6.9V5.6z M11.7,16.5
		c-0.4,0.4-0.9,0.6-1.5,0.6H6.9v-3.8h3.3c0.6,0,1.1,0.2,1.5,0.6c0.4,0.4,0.6,0.8,0.6,1.4C12.3,15.7,12.1,16.1,11.7,16.5">
  </path>
  <path class="st1" d="M20.7,34.4l0.3-0.1c0.2-0.1,0.5-0.3,0.8-0.5s0.6-0.5,0.9-0.8c0.3-0.3,0.5-0.7,0.8-1.3c0.2-0.5,0.3-1.1,0.3-1.7
		c0-1.5-0.7-2.9-2.1-4c-1.4-1.1-3.3-1.7-5.7-1.7H5.5v21.4h11c2.8,0,8.7-0.5,8.7-6.1C25.3,35.3,20.8,34.5,20.7,34.4 M12.5,29.3H15
		c0.5,0,0.9,0.2,1.3,0.5c0.3,0.3,0.5,0.7,0.5,1.1s-0.2,0.8-0.5,1.1c-0.3,0.3-0.7,0.5-1.3,0.5h-2.5V29.3z M17.2,40.2
		c-0.4,0.4-0.9,0.6-1.5,0.6h-3.2v-3.8h3.2c0.6,0,1.1,0.2,1.5,0.6c0.4,0.4,0.6,0.8,0.6,1.4C17.8,39.4,17.6,39.8,17.2,40.2">
  </path>
  <polygon class="st1" points="37.5,16.8 27.2,16.8 27.2,13.5 35.6,13.5 35.6,8.6 27.2,8.6 27.2,5.8 37.5,5.8 37.5,0.6 20.2,0.6 
		20.2,22 37.5,22 	">
  </polygon>
  <polygon class="st1" points="55.2,0.6 55.2,5.8 60.9,5.8 60.9,22 67.8,22 67.8,5.8 73.4,5.8 73.4,0.6 	">
  </polygon>
  <path class="st1" d="M47.4,16.5C47,16.8,46.5,17,45.8,17s-1.4-0.2-2.1-0.6c-0.7-0.4-1.2-0.7-1.5-0.9c-0.1-0.1-0.3-0.2-0.4-0.3
		l-4.1,3.9l0.3,0.3c0.2,0.3,0.6,0.6,1.1,0.9c0.5,0.4,1.1,0.7,1.8,1.1c0.7,0.4,1.5,0.7,2.6,0.9c1,0.3,2.1,0.4,3.2,0.4
		c2.7,0,4.9-0.7,6.5-2.1c1.6-1.4,2.4-3.1,2.4-5.1c0-1.1-0.2-2.2-0.7-3c-0.5-0.9-1-1.5-1.7-2c-0.7-0.4-1.4-0.8-2.2-1.2
		c-0.7-0.3-1.4-0.6-2.1-0.7c-0.1,0-0.1,0-0.2,0C48,8.4,47.4,8.2,47,7.9c-0.5-0.3-0.7-0.5-0.7-0.9c0-0.4,0.2-0.7,0.5-1
		c0.3-0.3,0.8-0.4,1.4-0.4c1.4,0,2.3,0.6,2.7,1.1l4.1-3.9l-0.1-0.1c-0.2-0.2-0.5-0.5-0.9-0.8c-0.4-0.3-0.9-0.6-1.5-0.9
		c-0.6-0.3-1.3-0.6-2.3-0.8C49.2,0.1,48.2,0,47.2,0c-2.6,0-4.6,0.7-6.2,2c-1.6,1.4-2.4,3-2.4,4.8c0,1,0.2,1.9,0.5,2.6
		c0.3,0.8,0.8,1.4,1.3,1.9c0.5,0.5,1.1,0.9,1.8,1.2c0.6,0.3,1.1,0.5,1.7,0.7c0.1,0,0.2,0.1,0.3,0.1c0.7,0.2,1.3,0.4,1.8,0.6
		c0.5,0.2,1,0.4,1.3,0.6c0.3,0.2,0.5,0.5,0.5,0.7C48,15.8,47.8,16.2,47.4,16.5">
  </path>
  <path class="st1" d="M37.5,37c0,1.4-1.1,2.6-2.6,2.6c-1.4,0-2.6-1.1-2.6-2.6V24.3h-6.9v12.4c0,5.1,4.1,9.3,9.3,9.3h0.4
		c5.1,0,9.3-4.1,9.3-9.3V24.3h-6.9V37z">
  </path>
  <polygon class="st1" points="56.2,31.6 51.7,24.3 44.8,24.3 52.8,38.1 52.8,45.7 59.7,45.7 59.7,38.1 67.7,24.3 60.8,24.3 	">
  </polygon>
  <path class="st1" d="M67,42.8c0,0.5-0.4,0.8-0.8,0.8s-0.8-0.4-0.8-0.8c0-0.5,0.4-0.8,0.8-0.8S67,42.3,67,42.8">
  </path>
  <path class="st1" d="M67.9,30.5h-0.5v-0.2h1.2v0.2h-0.5v1.5h-0.2V30.5z M68.9,30.3h0.3l0.5,1.3l0.5-1.3h0.3v1.6h-0.2v-1.4l-0.6,1.4
		h-0.1l-0.6-1.4v1.4h-0.2V30.3z">
  </path>
 </g>
</svg>