<svg version="1.1" id="Layer_1" xmlns="http://www.w3.org/2000/svg" xmlns:xlink="http://www.w3.org/1999/xlink" x="0px" y="0px" viewBox="0 0 227.5 64.6" style="enable-background:new 0 0 227.5 64.6;" xml:space="preserve">
 <style type="text/css">
  .st0{fill-rule:evenodd;clip-rule:evenodd;fill:#ED1C24;}
	.st1{fill-rule:evenodd;clip-rule:evenodd;}
	.st2{fill-rule:evenodd;clip-rule:evenodd;fill:#FFFFFF;}
 </style>
 <g>
  <path class="st0" d="M163.7,64.6h63.8l0-64.6l-63.7,0V64.6z">
  </path>
  <path class="st1" d="M80.4,53.8L80.4,53.8L80.4,53.8L80.4,53.8z M0,0.5v29.9h11.5V19.8h13.7v-7.2H11.5V7.7h14.1V0.5H0z M53.7,21.6
		H39.6V0.5H28.2v29.9h25.5V21.6z M71.3,7.2c4.4,0,4.7,5.5,4.7,8.3c0,3.2-0.2,8.3-4.7,8.3c-4.1,0-4.6-5.1-4.6-8.3
		C66.7,12.7,67,7.2,71.3,7.2 M71.3,31C81.7,31,88,25.7,88,15.5C88,5.4,81.7,0,71.3,0C60.8,0,54.7,5.4,54.7,15.5
		C54.7,25.7,60.8,31,71.3,31 M106.4,7.2c4.4,0,4.7,5.5,4.7,8.3c0,3.2-0.2,8.3-4.7,8.3c-4.1,0-4.6-5.1-4.6-8.3
		C101.8,12.7,102.2,7.2,106.4,7.2 M106.4,31c10.4,0,16.7-5.3,16.7-15.5c0-10-6.2-15.5-16.7-15.5C96,0,89.9,5.4,89.9,15.5
		C89.9,25.7,96,31,106.4,31 M136.7,7.2h3.2c2.3,0,4.5,0.4,4.5,3.1c0,3-2.3,3.3-4.7,3.3h-3L136.7,7.2L136.7,7.2z M137.3,20.3h2.6
		c1.4,0,2.6,0.2,3.3,1.5c0.9,1.8,1.1,6.5,1.6,8.6h11.9c-1.2-2.9-1.1-7.5-2.8-10.7c-1.1-1.6-2.6-2.8-5-3.2v-0.1
		c4.3-1,7.1-3.3,7.1-7.9c0-5.7-4.4-8-11.6-8h-18.5v29.9h11.5L137.3,20.3L137.3,20.3z M11.9,56.6V41.1h2.8c4.1,0,5.1,2.7,5.1,7.8
		c0,5-0.9,7.7-5.1,7.7H11.9L11.9,56.6z M31.8,49.2c0-12.1-6-15-14.6-15H0.4V64h16.3C25.3,64,31.8,60.5,31.8,49.2z M60.7,41.3v-7.2
		H34.8V64H61v-7.2H46v-4.1h14v-7.2H46v-4.2H60.7z">
  </path>
  <path class="st1" d="M80.6,64.5c2.9,0,6.1-0.6,8.2-1.2v-7.9c-2.1,0.7-4.1,1.2-6.2,1.2c-4.7,0-8.2-2.6-8.2-7.8
		c0-4.9,3.7-7.5,8.6-7.5c1.9,0,3.8,0.5,5.7,1.1v-7.9c-3.1-0.6-5-0.9-8.1-0.9c-9.6,0-17.9,5-17.9,15.1C62.7,59.3,70.7,64.5,80.6,64.5
		 M106.7,57.3c-4.1,0-4.6-5.1-4.6-8.3c0-2.8,0.3-8.3,4.6-8.3c4.4,0,4.7,5.5,4.7,8.3C111.4,52.3,111.3,57.3,106.7,57.3 M106.7,33.6
		c-10.4,0-16.6,5.4-16.6,15.5c0,10.2,6.1,15.5,16.6,15.5c10.4,0,16.7-5.3,16.7-15.5C123.4,39,117.2,33.6,106.7,33.6 M137.1,47.2
		v-6.4h3.2c2.3,0,4.5,0.4,4.5,3.1c0,3-2.3,3.3-4.7,3.3H137.1z M143.4,55.4c0.9,1.8,1.1,6.5,1.6,8.6h11.9c-1.2-2.9-1.1-7.5-2.8-10.7
		c-1.1-1.6-2.6-2.8-5-3.2V50c4.3-1,7.1-3.3,7.1-7.9c0-5.7-4.4-8-11.6-8h-18.5V64h11.5V53.9h2.6C141.6,53.9,142.7,54,143.4,55.4
		L143.4,55.4z">
  </path>
  <path class="st2" d="M172.6,49.6C170.7,37.8,184,31.9,184,31.9c8.7,16.4,14.6,22.6,14.6,22.6C189.1,63.1,174.6,62.4,172.6,49.6
		 M186.2,11.1c0.8-7.8,7.6-8.4,9.1-8.1c1.6,0.2,8,2.4,6.6,9.8c-1.4,7.5-11.5,11.9-11.5,11.9S185.9,14.7,186.2,11.1 M227.5,25.4
		l0-2.2h-19.7v2.2c0,0,6.5-1.1,6.4,4.9c-0.1,6.7-8.3,16-9.1,16.8c-1.5-1.8-3.1-3.9-4.9-6.4c-5.8-8.4-8.3-13.3-8.3-13.3
		s11.2-4.6,14.1-10.8c2.6-5.5,2.1-13.1-7.6-16.7h-10.3c-3.7,1.5-7.6,4.5-9,8.9c-2.5,7.9,1.3,16.2,3.2,19.2
		c-3.1,1.8-14.3,7.7-18.6,15.4v13.1c1.8,4.1,4.6,6.6,8.2,8l0,0h15.4c1-0.2,2.1-0.5,3.2-0.8c3.8-1.2,7.5-3.6,10.8-6.8l0.1,0.2
		c0,0,5.5,5.1,9.6,7.4h12.8c1.2-0.5,2.6-1.2,3.6-1.9l0-5.2c-0.8,0.6-2.5,1.6-5.5,1.2c-3.3-0.5-7.1-0.7-14.2-8.6
		c6.2-7.7,10.6-16.3,12.1-19C222.1,26.8,226.6,25.6,227.5,25.4">
  </path>
 </g>
</svg>