<svg width="141" height="36" viewBox="0 0 141 36" fill="none" xmlns="http://www.w3.org/2000/svg">
<g clip-path="url(#clip0)">
<rect width="36" height="36" rx="8" fill="white"/>
<rect width="36" height="36" rx="8" fill="white"/>
<rect x="0.5" y="0.5" width="35" height="35" rx="7.5" stroke="url(#paint0_linear)" stroke-opacity="0.4"/>
<path d="M18.4899 8.89294C18.4899 8.6207 18.2706 8.4 18 8.4C17.7294 8.4 17.5101 8.6207 17.5101 8.89294V11.8506C17.5101 12.1228 17.7294 12.3435 18 12.3435C18.2706 12.3435 18.4899 12.1228 18.4899 11.8506V8.89294Z" fill="white"/>
<path d="M18.4899 8.89294C18.4899 8.6207 18.2706 8.4 18 8.4C17.7294 8.4 17.5101 8.6207 17.5101 8.89294V11.8506C17.5101 12.1228 17.7294 12.3435 18 12.3435C18.2706 12.3435 18.4899 12.1228 18.4899 11.8506V8.89294Z" fill="url(#paint1_linear)"/>
<path d="M10.8493 17.2482C10.9846 17.0124 10.9043 16.7109 10.67 16.5748L8.12441 15.096C7.89009 14.9599 7.59048 15.0407 7.4552 15.2764C7.31992 15.5122 7.4002 15.8137 7.63451 15.9498L10.1801 17.4286C10.4144 17.5647 10.714 17.484 10.8493 17.2482Z" fill="white"/>
<path d="M10.8493 17.2482C10.9846 17.0124 10.9043 16.7109 10.67 16.5748L8.12441 15.096C7.89009 14.9599 7.59048 15.0407 7.4552 15.2764C7.31992 15.5122 7.4002 15.8137 7.63451 15.9498L10.1801 17.4286C10.4144 17.5647 10.714 17.484 10.8493 17.2482Z" fill="url(#paint2_linear)"/>
<path d="M24.5019 10.6814C24.6371 10.4456 24.5569 10.1442 24.3225 10.008C24.0882 9.87193 23.7886 9.9527 23.6533 10.1885L22.1836 12.7498C22.0484 12.9856 22.1287 13.2871 22.363 13.4232C22.5973 13.5593 22.8969 13.4785 23.0322 13.2428L24.5019 10.6814Z" fill="white"/>
<path d="M24.5019 10.6814C24.6371 10.4456 24.5569 10.1442 24.3225 10.008C24.0882 9.87193 23.7886 9.9527 23.6533 10.1885L22.1836 12.7498C22.0484 12.9856 22.1287 13.2871 22.363 13.4232C22.5973 13.5593 22.8969 13.4785 23.0322 13.2428L24.5019 10.6814Z" fill="url(#paint3_linear)"/>
<path d="M13.637 13.4232C13.8714 13.2871 13.9516 12.9856 13.8164 12.7498L12.3467 10.1885C12.2114 9.9527 11.9118 9.87192 11.6775 10.008C11.4431 10.1442 11.3629 10.4456 11.4981 10.6814L12.9678 13.2428C13.1031 13.4785 13.4027 13.5593 13.637 13.4232Z" fill="white"/>
<path d="M13.637 13.4232C13.8714 13.2871 13.9516 12.9856 13.8164 12.7498L12.3467 10.1885C12.2114 9.9527 11.9118 9.87192 11.6775 10.008C11.4431 10.1442 11.3629 10.4456 11.4981 10.6814L12.9678 13.2428C13.1031 13.4785 13.4027 13.5593 13.637 13.4232Z" fill="url(#paint4_linear)"/>
<path d="M28.3655 15.9498C28.5998 15.8137 28.6801 15.5122 28.5448 15.2764C28.4095 15.0407 28.1099 14.9599 27.8756 15.096L25.33 16.5748C25.0957 16.7109 25.0154 17.0124 25.1507 17.2482C25.286 17.484 25.5856 17.5647 25.8199 17.4286L28.3655 15.9498Z" fill="white"/>
<path d="M28.3655 15.9498C28.5998 15.8137 28.6801 15.5122 28.5448 15.2764C28.4095 15.0407 28.1099 14.9599 27.8756 15.096L25.33 16.5748C25.0957 16.7109 25.0154 17.0124 25.1507 17.2482C25.286 17.484 25.5856 17.5647 25.8199 17.4286L28.3655 15.9498Z" fill="url(#paint5_linear)"/>
<path d="M22.5474 23.0526V27.0947C22.5474 27.3979 22.3453 27.6 22.0421 27.6H13.9579C13.6547 27.6 13.4526 27.3979 13.4526 27.0947V23.0526H17.4947V27.6H18.5053V23.0526H22.5474ZM17.4947 19.5158H12.9474C12.6442 19.5158 12.4421 19.7179 12.4421 20.0211V21.5368C12.4421 21.84 12.6442 22.0421 12.9474 22.0421H17.4947V19.5158ZM23.0526 19.5158H18.5053V22.0421H23.0526C23.3558 22.0421 23.5579 21.84 23.5579 21.5368V20.0211C23.5579 19.7179 23.3558 19.5158 23.0526 19.5158ZM21.5874 18.96L21.6379 18.7579C21.84 18.2526 21.7895 17.6463 21.4863 17.1916C21.1832 16.7368 20.6274 16.4842 20.0716 16.4842C19.3642 16.4842 18.7579 16.8884 18.5053 17.5453L17.4947 20.0211H20.0211C20.6779 20.0211 21.3347 19.6168 21.5874 18.96ZM19.4653 17.8989C19.5663 17.6463 19.819 17.4947 20.0716 17.4947C20.2737 17.4947 20.4758 17.5958 20.6274 17.7979C20.7284 18 20.779 18.2021 20.6779 18.4042L20.6274 18.6063C20.5263 18.8589 20.2737 19.0105 20.0211 19.0105H19.0105L19.4653 17.8989ZM17.4947 17.5453C17.2421 16.8884 16.5853 16.4842 15.9284 16.4842C15.3726 16.4842 14.8168 16.7368 14.5137 17.2421C14.2105 17.6968 14.16 18.2526 14.3621 18.8084L14.4126 19.0105C14.6653 19.6168 15.3221 20.0211 15.979 20.0211H18.4547L17.4947 17.5453ZM16.5347 17.8989L16.9895 19.0105H15.979C15.7263 19.0105 15.4737 18.8589 15.3726 18.6063L15.2716 18.4042C15.2211 18.2021 15.2211 17.9495 15.3726 17.7979C15.4737 17.5958 15.6758 17.4947 15.9284 17.4947C16.1811 17.4947 16.4337 17.6463 16.5347 17.8989Z" fill="url(#paint6_linear)"/>
<path d="M22.5474 23.0526V27.0947C22.5474 27.3979 22.3453 27.6 22.0421 27.6H13.9579C13.6547 27.6 13.4526 27.3979 13.4526 27.0947V23.0526H17.4947V27.6H18.5053V23.0526H22.5474ZM17.4947 19.5158H12.9474C12.6442 19.5158 12.4421 19.7179 12.4421 20.0211V21.5368C12.4421 21.84 12.6442 22.0421 12.9474 22.0421H17.4947V19.5158ZM23.0526 19.5158H18.5053V22.0421H23.0526C23.3558 22.0421 23.5579 21.84 23.5579 21.5368V20.0211C23.5579 19.7179 23.3558 19.5158 23.0526 19.5158ZM21.5874 18.96L21.6379 18.7579C21.84 18.2526 21.7895 17.6463 21.4863 17.1916C21.1832 16.7368 20.6274 16.4842 20.0716 16.4842C19.3642 16.4842 18.7579 16.8884 18.5053 17.5453L17.4947 20.0211H20.0211C20.6779 20.0211 21.3347 19.6168 21.5874 18.96ZM19.4653 17.8989C19.5663 17.6463 19.819 17.4947 20.0716 17.4947C20.2737 17.4947 20.4758 17.5958 20.6274 17.7979C20.7284 18 20.779 18.2021 20.6779 18.4042L20.6274 18.6063C20.5263 18.8589 20.2737 19.0105 20.0211 19.0105H19.0105L19.4653 17.8989ZM17.4947 17.5453C17.2421 16.8884 16.5853 16.4842 15.9284 16.4842C15.3726 16.4842 14.8168 16.7368 14.5137 17.2421C14.2105 17.6968 14.16 18.2526 14.3621 18.8084L14.4126 19.0105C14.6653 19.6168 15.3221 20.0211 15.979 20.0211H18.4547L17.4947 17.5453ZM16.5347 17.8989L16.9895 19.0105H15.979C15.7263 19.0105 15.4737 18.8589 15.3726 18.6063L15.2716 18.4042C15.2211 18.2021 15.2211 17.9495 15.3726 17.7979C15.4737 17.5958 15.6758 17.4947 15.9284 17.4947C16.1811 17.4947 16.4337 17.6463 16.5347 17.8989Z" fill="url(#paint7_linear)"/>
<path d="M22.5474 23.0526V27.0947C22.5474 27.3979 22.3453 27.6 22.0421 27.6H13.9579C13.6547 27.6 13.4526 27.3979 13.4526 27.0947V23.0526H17.4947V27.6H18.5053V23.0526H22.5474ZM17.4947 19.5158H12.9474C12.6442 19.5158 12.4421 19.7179 12.4421 20.0211V21.5368C12.4421 21.84 12.6442 22.0421 12.9474 22.0421H17.4947V19.5158ZM23.0526 19.5158H18.5053V22.0421H23.0526C23.3558 22.0421 23.5579 21.84 23.5579 21.5368V20.0211C23.5579 19.7179 23.3558 19.5158 23.0526 19.5158ZM21.5874 18.96L21.6379 18.7579C21.84 18.2526 21.7895 17.6463 21.4863 17.1916C21.1832 16.7368 20.6274 16.4842 20.0716 16.4842C19.3642 16.4842 18.7579 16.8884 18.5053 17.5453L17.4947 20.0211H20.0211C20.6779 20.0211 21.3347 19.6168 21.5874 18.96ZM19.4653 17.8989C19.5663 17.6463 19.819 17.4947 20.0716 17.4947C20.2737 17.4947 20.4758 17.5958 20.6274 17.7979C20.7284 18 20.779 18.2021 20.6779 18.4042L20.6274 18.6063C20.5263 18.8589 20.2737 19.0105 20.0211 19.0105H19.0105L19.4653 17.8989ZM17.4947 17.5453C17.2421 16.8884 16.5853 16.4842 15.9284 16.4842C15.3726 16.4842 14.8168 16.7368 14.5137 17.2421C14.2105 17.6968 14.16 18.2526 14.3621 18.8084L14.4126 19.0105C14.6653 19.6168 15.3221 20.0211 15.979 20.0211H18.4547L17.4947 17.5453ZM16.5347 17.8989L16.9895 19.0105H15.979C15.7263 19.0105 15.4737 18.8589 15.3726 18.6063L15.2716 18.4042C15.2211 18.2021 15.2211 17.9495 15.3726 17.7979C15.4737 17.5958 15.6758 17.4947 15.9284 17.4947C16.1811 17.4947 16.4337 17.6463 16.5347 17.8989Z" fill="url(#paint8_linear)"/>
</g>
<path d="M65 14V16.352C63.992 14.744 62.288 13.712 60.152 13.712C56.768 13.712 53.96 16.448 53.96 20C53.96 23.552 56.768 26.288 60.152 26.288C62.288 26.288 63.992 25.256 65 23.648V25.52C65 27.968 63.344 29.552 60.56 29.552C57.968 29.552 56.864 28.592 56.264 27.368L54.872 28.16C55.808 30.032 57.8 31.088 60.56 31.088C63.656 31.088 66.584 29.168 66.584 25.52V14H65ZM60.272 24.752C57.608 24.752 55.544 22.664 55.544 20C55.544 17.336 57.608 15.248 60.272 15.248C62.936 15.248 65 17.336 65 20C65 22.664 62.936 24.752 60.272 24.752ZM75.5298 26.288C79.0338 26.288 81.8418 23.552 81.8418 20C81.8418 16.448 79.0338 13.712 75.5298 13.712C72.0258 13.712 69.2178 16.448 69.2178 20C69.2178 23.552 72.0258 26.288 75.5298 26.288ZM75.5298 24.752C72.8658 24.752 70.8018 22.664 70.8018 20C70.8018 17.336 72.8658 15.248 75.5298 15.248C78.1938 15.248 80.2578 17.336 80.2578 20C80.2578 22.664 78.1938 24.752 75.5298 24.752ZM90.0845 26.288C93.5885 26.288 96.3965 23.552 96.3965 20C96.3965 16.448 93.5885 13.712 90.0845 13.712C86.5805 13.712 83.7725 16.448 83.7725 20C83.7725 23.552 86.5805 26.288 90.0845 26.288ZM90.0845 24.752C87.4205 24.752 85.3565 22.664 85.3565 20C85.3565 17.336 87.4205 15.248 90.0845 15.248C92.7485 15.248 94.8125 17.336 94.8125 20C94.8125 22.664 92.7485 24.752 90.0845 24.752ZM109.367 9.2V16.352C108.359 14.744 106.655 13.712 104.519 13.712C101.135 13.712 98.3272 16.448 98.3272 20C98.3272 23.552 101.135 26.288 104.519 26.288C106.655 26.288 108.359 25.256 109.367 23.648V26H110.951V9.2H109.367ZM104.639 24.752C101.975 24.752 99.9112 22.664 99.9112 20C99.9112 17.336 101.975 15.248 104.639 15.248C107.303 15.248 109.367 17.336 109.367 20C109.367 22.664 107.303 24.752 104.639 24.752ZM122.945 14L119.057 24.056L114.545 14H112.865L118.241 26.072L117.929 26.816C117.281 28.376 116.201 29.48 114.641 29.312V30.8C116.801 30.968 118.577 29.408 119.489 27.104L124.625 14H122.945Z" fill="#A372DF"/>
<defs>
<linearGradient id="paint0_linear" x1="30" y1="-2.4" x2="1.5" y2="38.7" gradientUnits="userSpaceOnUse">
<stop stop-color="#80D7FF"/>
<stop offset="1" stop-color="#E980FC"/>
</linearGradient>
<linearGradient id="paint1_linear" x1="25.0737" y1="7.79369" x2="20.875" y2="21.9218" gradientUnits="userSpaceOnUse">
<stop stop-color="#80D7FF"/>
<stop offset="1" stop-color="#E980FC"/>
</linearGradient>
<linearGradient id="paint2_linear" x1="25.0737" y1="7.79369" x2="20.875" y2="21.9218" gradientUnits="userSpaceOnUse">
<stop stop-color="#80D7FF"/>
<stop offset="1" stop-color="#E980FC"/>
</linearGradient>
<linearGradient id="paint3_linear" x1="25.0737" y1="7.79369" x2="20.875" y2="21.9218" gradientUnits="userSpaceOnUse">
<stop stop-color="#80D7FF"/>
<stop offset="1" stop-color="#E980FC"/>
</linearGradient>
<linearGradient id="paint4_linear" x1="25.0737" y1="7.79369" x2="20.875" y2="21.9218" gradientUnits="userSpaceOnUse">
<stop stop-color="#80D7FF"/>
<stop offset="1" stop-color="#E980FC"/>
</linearGradient>
<linearGradient id="paint5_linear" x1="25.0737" y1="7.79369" x2="20.875" y2="21.9218" gradientUnits="userSpaceOnUse">
<stop stop-color="#80D7FF"/>
<stop offset="1" stop-color="#E980FC"/>
</linearGradient>
<linearGradient id="paint6_linear" x1="18" y1="16.4842" x2="18" y2="37.8" gradientUnits="userSpaceOnUse">
<stop stop-color="white"/>
<stop offset="1" stop-color="white" stop-opacity="0"/>
</linearGradient>
<linearGradient id="paint7_linear" x1="18" y1="16.4842" x2="18" y2="27.6" gradientUnits="userSpaceOnUse">
<stop offset="0.504809" stop-color="white"/>
<stop offset="1" stop-color="white" stop-opacity="0"/>
</linearGradient>
<linearGradient id="paint8_linear" x1="21.7053" y1="15.7432" x2="12.9053" y2="28.4337" gradientUnits="userSpaceOnUse">
<stop stop-color="#80D7FF"/>
<stop offset="1" stop-color="#E980FC"/>
</linearGradient>
<clipPath id="clip0">
<rect width="36" height="36" rx="8" fill="white"/>
</clipPath>
</defs>
</svg>
