<svg version="1.1" id="Layer_1" xmlns="http://www.w3.org/2000/svg" xmlns:xlink="http://www.w3.org/1999/xlink" x="0px" y="0px" viewBox="0 0 209.1 96" style="enable-background:new 0 0 209.1 96;" xml:space="preserve">
 <style type="text/css">
  .st0{fill:#012169;}
	.st1{fill:#FFFFFF;}
 </style>
 <g>
  <polygon class="st0" points="158.5,23.1 192.2,23.1 192.2,32.6 209.1,32.6 209.1,96 0,96 0,32.6 16.9,32.6 16.9,23.1 50.5,23.1 
		104.5,0 	">
  </polygon>
  <polygon class="st1" points="154.4,40 154.4,50.2 161,50.3 162.4,40 	">
  </polygon>
  <path class="st1" d="M187.5,50.3c0-1.7,1.4-2.9,3-2.9c1.6,0,2.9,1.2,2.9,2.9c0,1.7-1.4,2.9-2.9,2.9C188.8,53.2,187.5,52,187.5,50.3
		 M190.4,52.7c1.3,0,2.4-1,2.4-2.4c0-1.4-1-2.4-2.4-2.4c-1.3,0-2.4,1-2.4,2.4C188,51.7,189.1,52.7,190.4,52.7 M189.8,52h-0.5v-3.4
		h1.3c0.8,0,1.2,0.3,1.2,1c0,0.6-0.4,0.9-0.9,0.9l1,1.5h-0.6l-0.9-1.5h-0.6V52z M190.4,50.1c0.4,0,0.8,0,0.8-0.6
		c0-0.4-0.4-0.5-0.7-0.5h-0.7v1H190.4z">
  </path>
  <polygon class="st1" points="33.3,74.9 33.3,40 23.8,40 23.8,83.2 48.1,83.2 48.1,74.9 	">
  </polygon>
  <polygon class="st1" points="129.5,83.2 152.3,83.2 152.3,74.9 139.1,74.9 139.1,69.5 152.3,69.5 152.3,61.5 139.1,61.5 139.1,56 
		152.3,56 152.3,47.6 129.5,47.6 129.5,47.7 	">
  </polygon>
  <path class="st1" d="M79.5,78.7c0,2.5-2,4.5-4.5,4.5H56.5c-2.5,0-4.5-2-4.5-4.5V52.2c0-2.5,2-4.5,4.5-4.5H75c2.5,0,4.5,2,4.5,4.5
		V78.7z M70,56h-8.4v18.9H70V56z">
  </path>
  <path class="st1" d="M114.5,47.6v27.3h-5.8V47.6h-8.4v27.3h-5.8V47.6H85v31.1c0,2.5,2,4.5,4.5,4.5h11.3c1.9,0,3.7-1.3,3.7-3.2
		c0,1.9,1.8,3.2,3.7,3.2h11.3c2.5,0,4.5-2,4.5-4.5V47.6H114.5z">
  </path>
  <path class="st1" d="M185.8,69.8L185.8,69.8l-0.1-0.1c0-0.1-0.1-0.2-0.1-0.2l-0.1-0.1c-1.5-3-4.9-5.6-10.4-7.8l-0.2-0.1
		c-1.1-0.4-4.4-1.7-4.7-3.8c-0.1-0.6,0.1-1.5,0.8-2.1c0.7-0.7,1.7-1.1,3.1-1.1c2.2,0,4.8,0.9,6.1,1.5c2.8,1.1,5.2,2.2,5.2,2.2
		l0.2,0.1v-7.8l-0.1-0.1c-0.1,0-5.3-3.3-10.5-4.1c-0.6-0.1-1.2-0.1-1.8-0.1c-4.9,0-8.5,1.8-10.9,5.2c-2,2.9-2.2,7.4-0.5,10.8
		c2.2,3.8,5.7,5.4,9.1,7c1.4,0.6,2.9,1.3,4.2,2.1l0,0c1.5,0.9,2.3,2.3,2,3.6c-0.3,1.3-1.8,2.2-3.7,2.2c-0.3,0-0.5,0-0.8-0.1l-0.1,0
		c-3.6-0.5-11-3.2-11-3.3l-0.2-0.1v8.5l0.1,0c0.1,0,7.2,2.4,13.5,2.4h0c3.4,0,6-0.7,7.7-2.1c0,0,3.9-3.1,4.1-8.4
		C186.9,72.8,186.5,71.3,185.8,69.8">
  </path>
 </g>
</svg>