<svg version="1.1" id="Layer_1" xmlns="http://www.w3.org/2000/svg" xmlns:xlink="http://www.w3.org/1999/xlink" x="0px" y="0px" viewBox="0 0 199.1 56.5" style="enable-background:new 0 0 199.1 56.5;" xml:space="preserve">
 <style type="text/css">
  .st0{fill:#E11A2B;}
 </style>
 <g>
  <g>
   <g>
    <path d="M196.2,31.8c-1.5-1.1-3.3-1.6-5.1-2.1l-0.2-0.1c-1.8-0.5-2.9-1-3.6-1.6c-0.7-0.6-1.1-1.4-1.1-2.7c0-0.6,0.1-1.1,0.2-1.6
				c0.2-0.5,0.4-0.9,0.8-1.3c0.4-0.4,0.9-0.8,1.5-1c0.6-0.2,1.3-0.4,2-0.4c0.6,0,1.2,0.1,1.8,0.3c0.5,0.2,1,0.5,1.3,0.8
				c0.3,0.3,0.6,0.8,0.8,1.3c0.2,0.5,0.3,1.1,0.3,1.8l0,1.2h3.4l0-1.2c0-2.2-0.8-4.1-2.2-5.4c-1.4-1.3-3.3-2.1-5.5-2.1
				c-2,0-4,0.7-5.4,1.8c-1.7,1.4-2.5,3.4-2.5,5.9c0.1,2.4,0.8,4,2.4,5.3c1.4,1.1,3.3,1.7,5.2,2.3c2,0.4,3.3,1,4.1,1.9
				c0.8,0.8,1.1,1.8,1.2,3.2l0,0.2c0,0.7-0.1,1.3-0.4,1.9c-0.2,0.6-0.6,1.1-1,1.6c-0.4,0.5-1,0.8-1.6,1.1c-0.6,0.3-1.3,0.4-2,0.4
				c-1.6,0-2.9-0.5-3.9-1.4c-0.9-0.9-1.5-2.3-1.5-3.8l0-1.2l-3.4,0l-0.1,1.5c0,1,0.2,2,0.5,2.9c0.4,0.9,0.9,1.8,1.6,2.5
				c0.8,0.9,1.9,1.6,3,2.1c1.1,0.5,2.4,0.7,3.7,0.7c1.2,0,2.3-0.2,3.4-0.7c1.1-0.5,2-1.1,2.8-2c0.8-0.8,1.4-1.8,1.7-2.8
				c0.4-1,0.5-2.2,0.5-3.3C198.9,35.2,198,33.2,196.2,31.8z">
    </path>
    <path d="M181.5,4.3H177l3.6,2.6l-1.4,4.3l3.6-2.6l3.6,2.6l-1.4-4.3l3.6-2.6h-4.5L182.9,0L181.5,4.3z">
    </path>
    <path d="M168.1,40.5l-9-22.7h-3.7l1,2.5c0.1,0.2,2.6,6.5,5,12.8l4.7,12.1l-4.9,11.4h3.8l15.5-36.2l1-2.5h-3.8L168.1,40.5z">
    </path>
    <path d="M134.1,24.3c1.3-1.2,2.4-1.9,3.7-2.4c1.2-0.5,2.5-0.7,4.3-0.7c2,0,4,0.6,5.7,1.6c2,1.2,3.4,3,4.2,5.2l0.3,0.8h3.7
				l-0.6-1.6c-1.1-3.1-3.1-5.7-5.9-7.3c-2.3-1.4-4.9-2.1-7.6-2.1c-3.9,0-7.6,1.5-10.2,4.2c-2.7,2.7-4.1,6.3-4.1,10.3
				c0,3.7,1.4,7.3,3.7,9.9c2.7,3,6.4,4.5,10.9,4.5c3,0,5.8-0.9,8.1-2.5c2.3-1.6,4.1-3.9,5.1-6.7l0.6-1.6h-3.7l-0.3,0.8
				c-0.6,1.6-1.8,3.3-3.4,4.4c-1.9,1.4-4.2,2.1-6.6,2.2c-1.5,0-2.9-0.3-4.2-0.8c-1.3-0.5-2.5-1.3-3.5-2.3c-1-1-1.8-2.2-2.4-3.6
				c-0.6-1.4-0.8-2.9-0.8-4.4c0-1.5,0.3-3.1,0.9-4.5C132.4,26.3,133.1,25.1,134.1,24.3z">
    </path>
    <path d="M120.7,34.1c-0.1,0.7-0.3,1.4-0.5,2c-0.8,2.2-2.1,4-3.9,5.3c-1.8,1.3-3.9,1.9-6.2,1.9c-3.4,0-6.2-1.2-8.2-3.4
				c-1.8-2-2.8-4.8-2.8-7.6c0-3.1,1.1-5.9,3.1-7.9c2-2,4.8-3.2,7.8-3.2c2.2,0,4.4,0.6,6.2,1.8c1.8,1.2,3.2,2.9,3.9,4.9
				c0.3,0.6,0.4,1.2,0.6,1.9c0.1,0.7,0.2,1.4,0.2,2.1C120.8,32.7,120.8,33.4,120.7,34.1z M120.7,17.8v4.7c-0.7-0.8-1.6-1.6-2.6-2.3
				c-2.4-1.6-5.2-2.5-8.2-2.5c-5.4,0-8.8,2.5-10.7,4.6c-2.3,2.6-3.7,6.2-3.7,9.8c0,3.6,1.3,7.2,3.7,9.8c1.9,2.1,5.2,4.6,10.7,4.6
				c2.8,0,5.4-0.7,7.6-2c1.2-0.7,2.3-1.7,3.2-2.8v4.8h3.4V17.8L120.7,17.8L120.7,17.8z">
    </path>
    <path d="M89,20.6c-0.9-1-2.1-1.7-3.4-2.2c-2.5-0.9-5.9-1-8.8,0.2c-1.4,0.6-2.7,1.5-3.6,2.6c-0.4,0.4-0.7,0.9-1,1.4
				c-0.4-0.6-0.7-1.1-0.9-1.3c-0.9-1.1-2.2-2-3.6-2.6c-1.4-0.6-3-0.9-4.7-0.9c-1.1,0-2.7,0.2-4.4,1c-1.1,0.5-2.1,1.2-3,2.1v-3.1
				h-3.4v28.9h3.4V30.4c0-1.6,0.2-2.9,0.5-4c0.3-1.1,0.9-2,1.6-2.9c0.5-0.7,1.3-1.3,2.3-1.8c1-0.4,2-0.7,3-0.6
				c1.3,0,2.5,0.3,3.5,0.7c1,0.4,1.7,1.1,2.4,1.9c0.6,0.8,0.9,1.5,1.2,2.3c0.3,1,0.4,2.2,0.4,3.9l0,16.7h3.4v-16
				c0-1.7,0.1-3.1,0.3-4.2c0.2-1,0.7-1.8,1.4-2.8c0.6-0.8,1.5-1.5,2.6-1.9c2-0.8,4.4-0.7,6.1-0.1c0.8,0.3,1.5,0.8,2.1,1.4
				c0.7,0.7,1.3,1.7,1.7,2.9c0.4,1.3,0.6,2.9,0.6,4.7v16h3.4v-16c0-2.2-0.3-4.2-0.8-5.8C90.9,23.1,90,21.7,89,20.6z">
    </path>
    <path class="st0" d="M24.4,0l-5.7,17.8H0l15.1,11L9.4,46.6l15-11l15.1,11.1l-5.8-17.9l15-11H30.1L24.4,0z">
    </path>
   </g>
  </g>
 </g>
</svg>