<svg version="1.1" id="Layer_1" xmlns:x="ns_extend;" xmlns:i="ns_ai;" xmlns:graph="ns_graphs;" xmlns="http://www.w3.org/2000/svg" xmlns:xlink="http://www.w3.org/1999/xlink" x="0px" y="0px" viewBox="0 0 436.3 209.8" style="enable-background:new 0 0 436.3 209.8;" xml:space="preserve">
 <style type="text/css">
  .st0{fill:#CF0A2C;}
 </style>
 <metadata>
  <sfw xmlns="ns_sfw;">
   <slices>
   </slices>
   <sliceSourceBounds bottomLeftOrigin="true" height="209.8" width="436.3" x="-21.7" y="-305.1">
   </sliceSourceBounds>
  </sfw>
 </metadata>
 <path class="st0" d="M221.2,74.1l20.2-35.2l68.6-4.4l2.4-4.3L249,25.8l14.9-25.7h117.6c36.2,0,62.9,13,52.5,50.9
	c-3.1,11.6-17.8,40.6-61,52.7c9.2,1.1,32,11.2,28,37.4c-7,46.5-67.1,68.6-100.6,68.6l-138.9,0.1l-6.9-26.9l72.8-5.1l2.5-4.3l-79-4.8
	l-8.5-31.9l112.3-6.6l2.5-4.2L55.5,113.4l9.7-16.8l217.2-14.1l2.5-4.2L221.2,74.1 M312.1,81.1l20-0.1c13.4-0.1,27.3-6.2,32.4-18.5
	c4.7-11.5-1.6-21.3-10-21.2h-19.4L312.1,81.1z M289,121l-24.1,41.9h23c10.7,0,29.8-5.3,35.7-20.5c5.5-14.2-4.6-21.4-11.6-21.4
	C312,121,289,121,289,121z M113.8,185.7l-14,23.9L0,209.8L9.7,193L113.8,185.7L113.8,185.7z M120.8,0l80.3,0.1l6.1,22.7l-95.9-6
	C111.3,16.8,120.8,0,120.8,0z M211.7,40.8l8.8,33.3l-137.1-9L93,48.4L211.7,40.8L211.7,40.8z M141.9,136.8L124.5,167l-96.7-5.5
	l9.7-16.8L141.9,136.8L141.9,136.8z">
 </path>
</svg>