<svg xmlns="http://www.w3.org/2000/svg" width="124" height="31" fill="none">
  <path fill="#000" d="M43.07 21.43c-.54-.03-.9-.13-1.08-.3-.2-.16-.3-.55-.3-1.12V6.09h-4.27l-.68 3.48a6.96 6.96 0 0 0-2.58-2.74 6.58 6.58 0 0 0-8.47 1.6c-.64.8-1.14 1.78-1.5 2.95a13.1 13.1 0 0 0-.55 3.9c0 1.44.2 2.73.6 3.87.4 1.14.93 2.12 1.62 2.94a6.82 6.82 0 0 0 5.34 2.53c1.2 0 2.21-.27 3.07-.8a7 7 0 0 0 2.5-2.73v3.03h7.37V21.5l-1.06-.07Zm-6.97-3.4a5.5 5.5 0 0 1-.85 1.97 2.93 2.93 0 0 1-2.57 1.37c-1.1 0-1.9-.47-2.48-1.4-.58-.93-.87-2.49-.87-4.68 0-2.2.29-3.78.86-4.77.57-.98 1.37-1.48 2.4-1.48.59 0 1.1.15 1.53.45.42.3.77.63 1.03.98.42.58.73 1.25.94 2.01.2.77.31 1.7.31 2.81 0 1.02-.1 1.94-.3 2.74ZM21.85 1.36V0H1.31v10.03H4a10.4 10.4 0 0 1 .6-2.66c.2-.68.46-1.3.74-1.86A4.44 4.44 0 0 1 7.96 3.2c.6-.2 1.34-.31 2.2-.31h3.68L0 22.76v1.36h21.7V14.1H19c-.05.37-.12.79-.2 1.23-.09.44-.22.92-.4 1.43-.22.68-.47 1.3-.75 1.86a4.44 4.44 0 0 1-2.61 2.31c-.61.21-1.34.32-2.2.32H8.03L21.85 1.36Z"/>
  <path fill="#000" d="M124 18.94c0 1.73-.56 3.1-1.68 4.14-1.11 1.03-2.7 1.54-4.73 1.54a7.59 7.59 0 0 1-3.37-.73c-1-.48-2.1-1.17-2.88-2l-.63 2.23h-2.3v-6.97h2.34a6.86 6.86 0 0 0 2.66 3.5c.6.43 1.23.78 1.9 1.02 1.66.58 2.88.57 4.03-.07.33-.18.61-.7.61-1.23 0-.84-.48-1.46-1.45-1.86-.46-.2-2.86-.85-3.51-1.03a21.3 21.3 0 0 1-3.79-1.4 4.8 4.8 0 0 1-1.82-1.84 5.56 5.56 0 0 1-.7-2.9c0-.8.13-1.53.4-2.2a4.7 4.7 0 0 1 1.17-1.7 5.5 5.5 0 0 1 1.83-1.1c.71-.26 1.5-.4 2.38-.4 1.1 0 2.06.24 2.75.57.74.37 1.56.86 2.15 1.53l.46-1.9h2.33v6.12h-2.3a5.99 5.99 0 0 0-2.1-2.74 5.37 5.37 0 0 0-3.22-1.05c-.6 0-1.06.14-1.42.42-.34.27-.52.72-.52 1.14 0 .54.2.94.61 1.24.72.53 3.38 1.22 4.04 1.4l2.04.6c.7.22 1.31.47 1.86.75a5.4 5.4 0 0 1 2.86 4.92ZM88.53 15.29a9.47 9.47 0 0 1 5.57-8.62 8.5 8.5 0 0 1 3.54-.76c1.25 0 2.42.25 3.52.75a9.45 9.45 0 0 1 0 17.23c-1.1.49-2.27.73-3.52.73a8.97 8.97 0 0 1-6.43-2.74 9.77 9.77 0 0 1-1.95-2.97 9.14 9.14 0 0 1-.73-3.62Zm5.66 0c0 1.5.1 2.7.31 3.62.2.9.51 1.58.9 2.02.27.31.58.55.94.72.37.16.8.25 1.3.25a3 3 0 0 0 1.28-.25c.35-.17.66-.4.92-.72.4-.44.7-1.11.9-2.02.22-.91.32-2.12.32-3.62 0-1.51-.1-2.75-.31-3.66-.21-.9-.51-1.58-.9-2.03a2.72 2.72 0 0 0-.93-.7 2.96 2.96 0 0 0-1.28-.26 2.7 2.7 0 0 0-2.24.96c-.39.45-.7 1.12-.9 2.03a17 17 0 0 0-.31 3.66ZM86.34 11.38a8.93 8.93 0 0 0-1.51-2.96 6.58 6.58 0 0 0-8.47-1.6 6.78 6.78 0 0 0-2.7 3.02V6h-8.14v2.92l1.93.06c.53.02.9.12 1.09.3.2.18.3.56.3 1.13v16.46c0 .58-.1.95-.3 1.13-.2.18-.56.27-1.09.3l-1.77.06V31h11.44v-2.63l-1.94-.06c-.52-.03-.87-.12-1.04-.3-.16-.18-.24-.55-.24-1.12v-5.56a6.03 6.03 0 0 0 5.42 3.29 6.82 6.82 0 0 0 5.35-2.53 9.18 9.18 0 0 0 1.63-2.94c.4-1.14.59-2.43.59-3.87s-.18-2.74-.54-3.9Zm-6.01 8.59c-.58.93-1.41 1.4-2.48 1.4A2.95 2.95 0 0 1 75.28 20a5.56 5.56 0 0 1-.85-1.98c-.2-.8-.3-1.72-.3-2.74 0-1.1.1-2.04.31-2.8.21-.77.52-1.44.94-2.02.26-.35.6-.68 1.04-.98.42-.3.94-.45 1.52-.45 1.03 0 1.84.5 2.4 1.48.58.99.86 2.58.86 4.77 0 2.2-.29 3.75-.87 4.68v.01ZM64.73 11.38a8.93 8.93 0 0 0-1.51-2.96 6.58 6.58 0 0 0-8.47-1.6 6.78 6.78 0 0 0-2.7 3.02V6h-8.14v2.92l1.93.06c.53.02.89.12 1.09.3.2.18.3.56.3 1.13v16.46c0 .58-.1.95-.3 1.13-.2.18-.56.27-1.09.3l-1.77.06V31H55.5v-2.63l-1.94-.06c-.52-.03-.87-.12-1.04-.3-.16-.18-.24-.55-.24-1.12v-5.56a6.03 6.03 0 0 0 5.42 3.29 6.82 6.82 0 0 0 5.35-2.53 9.18 9.18 0 0 0 1.63-2.94c.4-1.14.59-2.43.59-3.87s-.18-2.74-.55-3.9Zm-6.01 8.59c-.58.93-1.41 1.4-2.48 1.4A2.95 2.95 0 0 1 53.67 20a5.55 5.55 0 0 1-.85-1.98c-.2-.8-.3-1.72-.3-2.74 0-1.1.1-2.04.31-2.8.2-.77.52-1.44.94-2.02.26-.35.6-.68 1.04-.98.42-.3.93-.45 1.52-.45 1.03 0 1.83.5 2.4 1.48.58.99.86 2.58.86 4.77 0 2.2-.3 3.75-.87 4.68v.01Z"/>
</svg>